name rise32.9588peak41.5061fall63.4684.mot
datacolumns 19
datarows 18
range 0.59832900000000 0.62666900000000
endheader
time	ground_force1_vx	ground_force1_vy	ground_force1_vz	ground_force1_px	ground_force1_py	ground_force1_pz	ground_force2_vx	ground_force2_vy	ground_force2_vz	ground_force2_px	ground_force2_py	ground_force2_pz	ground_torque1_x	ground_torque1_y	ground_torque1_z	ground_torque2_x	ground_torque2_y	ground_torque2_z	
0.59832900000000	6.35003000000000	734.81608100000005	46.99886900000000	0.21329400000000	0.00000000000000	0.12181000000000	0.00000000000000	0.00000000000000	0.00000000000000	0.00000000000000	0.00000000000000	0.00000000000000	0.00000000000000	18.99841000000000	0.00000000000000	0.00000000000000	0.00000000000000	0.00000000000000	
0.59999600000000	6.16238400000000	735.87775999999997	47.01569000000000	0.21282600000000	0.00000000000000	0.12175400000000	0.00000000000000	0.00000000000000	0.00000000000000	0.00000000000000	0.00000000000000	0.00000000000000	0.00000000000000	19.02749800000000	0.00000000000000	0.00000000000000	0.00000000000000	0.00000000000000	
0.60166500000000	5.96952700000000	736.94935799999996	47.03373300000000	0.21234600000000	0.00000000000000	0.12169900000000	0.00000000000000	0.00000000000000	0.00000000000000	0.00000000000000	0.00000000000000	0.00000000000000	0.00000000000000	19.05761300000000	0.00000000000000	0.00000000000000	0.00000000000000	0.00000000000000	
0.60333200000000	5.77081300000000	738.02964399999996	47.05302600000000	0.21185300000000	0.00000000000000	0.12164400000000	0.00000000000000	0.00000000000000	0.00000000000000	0.00000000000000	0.00000000000000	0.00000000000000	0.00000000000000	19.08879100000000	0.00000000000000	0.00000000000000	0.00000000000000	0.00000000000000	
0.60499800000000	5.56563200000000	739.11744599999997	47.07359400000000	0.21134400000000	0.00000000000000	0.12159000000000	0.00000000000000	0.00000000000000	0.00000000000000	0.00000000000000	0.00000000000000	0.00000000000000	0.00000000000000	19.12106200000000	0.00000000000000	0.00000000000000	0.00000000000000	0.00000000000000	
0.60666800000000	5.35341500000000	740.21164599999997	47.09546300000000	0.21081800000000	0.00000000000000	0.12153600000000	0.00000000000000	0.00000000000000	0.00000000000000	0.00000000000000	0.00000000000000	0.00000000000000	0.00000000000000	19.15445700000000	0.00000000000000	0.00000000000000	0.00000000000000	0.00000000000000	
0.60833400000000	5.13363600000000	741.31118200000003	47.11865900000000	0.21027200000000	0.00000000000000	0.12148400000000	0.00000000000000	0.00000000000000	0.00000000000000	0.00000000000000	0.00000000000000	0.00000000000000	0.00000000000000	19.18899900000000	0.00000000000000	0.00000000000000	0.00000000000000	0.00000000000000	
0.60999700000000	4.90581700000000	742.41505099999995	47.14320300000000	0.20970700000000	0.00000000000000	0.12143200000000	0.00000000000000	0.00000000000000	0.00000000000000	0.00000000000000	0.00000000000000	0.00000000000000	0.00000000000000	19.22471000000000	0.00000000000000	0.00000000000000	0.00000000000000	0.00000000000000	
0.61167000000000	4.66952600000000	743.52230799999995	47.16911800000000	0.20911900000000	0.00000000000000	0.12138100000000	0.00000000000000	0.00000000000000	0.00000000000000	0.00000000000000	0.00000000000000	0.00000000000000	0.00000000000000	19.26160700000000	0.00000000000000	0.00000000000000	0.00000000000000	0.00000000000000	
0.61333100000000	4.42438800000000	744.63206200000002	47.19642200000000	0.20850800000000	0.00000000000000	0.12133100000000	0.00000000000000	0.00000000000000	0.00000000000000	0.00000000000000	0.00000000000000	0.00000000000000	0.00000000000000	19.29970000000000	0.00000000000000	0.00000000000000	0.00000000000000	0.00000000000000	
0.61499600000000	4.17007900000000	745.74347899999998	47.22513100000000	0.20787200000000	0.00000000000000	0.12128200000000	0.00000000000000	0.00000000000000	0.00000000000000	0.00000000000000	0.00000000000000	0.00000000000000	0.00000000000000	19.33899700000000	0.00000000000000	0.00000000000000	0.00000000000000	0.00000000000000	
0.61666900000000	3.90633300000000	746.85577699999999	47.25526000000000	0.20721200000000	0.00000000000000	0.12123400000000	0.00000000000000	0.00000000000000	0.00000000000000	0.00000000000000	0.00000000000000	0.00000000000000	0.00000000000000	19.37949800000000	0.00000000000000	0.00000000000000	0.00000000000000	0.00000000000000	
0.61833000000000	3.63294000000000	747.96822799999995	47.28682000000000	0.20652700000000	0.00000000000000	0.12118700000000	0.00000000000000	0.00000000000000	0.00000000000000	0.00000000000000	0.00000000000000	0.00000000000000	0.00000000000000	19.42119900000000	0.00000000000000	0.00000000000000	0.00000000000000	0.00000000000000	
0.61999400000000	3.34975200000000	749.08015100000000	47.31981900000000	0.20581500000000	0.00000000000000	0.12114200000000	0.00000000000000	0.00000000000000	0.00000000000000	0.00000000000000	0.00000000000000	0.00000000000000	0.00000000000000	19.46408800000000	0.00000000000000	0.00000000000000	0.00000000000000	0.00000000000000	
0.62166200000000	3.05667800000000	750.19091500000002	47.35426100000000	0.20507800000000	0.00000000000000	0.12109700000000	0.00000000000000	0.00000000000000	0.00000000000000	0.00000000000000	0.00000000000000	0.00000000000000	0.00000000000000	19.50815000000000	0.00000000000000	0.00000000000000	0.00000000000000	0.00000000000000	
0.62333500000000	2.75368800000000	751.29993200000001	47.39014900000000	0.20431400000000	0.00000000000000	0.12105400000000	0.00000000000000	0.00000000000000	0.00000000000000	0.00000000000000	0.00000000000000	0.00000000000000	0.00000000000000	19.55335900000000	0.00000000000000	0.00000000000000	0.00000000000000	0.00000000000000	
0.62500100000000	2.44081300000000	752.40665500000000	47.42748100000000	0.20352400000000	0.00000000000000	0.12101100000000	0.00000000000000	0.00000000000000	0.00000000000000	0.00000000000000	0.00000000000000	0.00000000000000	0.00000000000000	19.59968600000000	0.00000000000000	0.00000000000000	0.00000000000000	0.00000000000000	
0.62666900000000	2.11814300000000	753.51057600000001	47.46625100000000	0.20270900000000	0.00000000000000	0.12097000000000	0.00000000000000	0.00000000000000	0.00000000000000	0.00000000000000	0.00000000000000	0.00000000000000	0.00000000000000	19.64709300000000	0.00000000000000	0.00000000000000	0.00000000000000	0.00000000000000	
